<svg width="185" height="31" viewBox="0 0 185 31" fill="none" xmlns="http://www.w3.org/2000/svg">
<g id="Layer_1" clip-path="url(#clip0_0_148)">
<g id="Vector">
<path d="M32.1239 24.7504V6.3984H35.6486V24.7504H32.1239Z" fill="#213163"/>
<path d="M38.7005 24.7504V11.6312H42.1007L42.1754 14.136L41.6528 14.2352C41.8332 13.8043 42.079 13.4168 42.3838 13.0696C42.6887 12.7224 43.0403 12.4248 43.4385 12.1768C43.8367 11.9288 44.2566 11.7335 44.7046 11.594C45.1526 11.4545 45.5975 11.3832 46.0455 11.3832C46.7236 11.3832 47.3365 11.4917 47.8809 11.7056C48.4285 11.9195 48.8889 12.2543 49.2715 12.71C49.6511 13.1657 49.9497 13.764 50.1644 14.508L49.62 14.4584L49.7942 14.0616C50.0088 13.6648 50.2826 13.3021 50.6124 12.9704C50.9421 12.6387 51.3154 12.3597 51.7292 12.1272C52.143 11.8947 52.5723 11.7149 53.0202 11.5816C53.4682 11.4483 53.9038 11.3832 54.3362 11.3832C55.3628 11.3832 56.2152 11.5847 56.8934 11.9908C57.5716 12.3969 58.0818 13.0045 58.4209 13.8136C58.76 14.6227 58.9311 15.6147 58.9311 16.7896V24.7504H55.4064V17.0376C55.4064 16.4424 55.3224 15.9557 55.1575 15.5744C54.9926 15.1931 54.7531 14.9079 54.4388 14.7188C54.1246 14.5297 53.7202 14.4336 53.2225 14.4336C52.8429 14.4336 52.4914 14.4956 52.1678 14.6196C51.8443 14.7436 51.5643 14.9172 51.3248 15.1404C51.0852 15.3636 50.8986 15.6271 50.7679 15.934C50.6341 16.2409 50.5688 16.5664 50.5688 16.9136V24.7504H47.0192V17.0128C47.0192 16.4672 46.9352 15.9991 46.7703 15.6116C46.6054 15.2241 46.3659 14.9296 46.0517 14.7312C45.7375 14.5328 45.3486 14.4336 44.8851 14.4336C44.5055 14.4336 44.154 14.4956 43.8304 14.6196C43.5069 14.7436 43.23 14.9172 42.9998 15.1404C42.7665 15.3636 42.5861 15.624 42.4554 15.9216C42.3216 16.2192 42.2563 16.5416 42.2563 16.8888V24.7504H38.7005Z" fill="#213163"/>
<path d="M61.7558 24.7504V11.6312H65.1561L65.2308 14.136L64.7082 14.2352C64.8886 13.8043 65.1344 13.4168 65.4392 13.0696C65.7441 12.7224 66.0957 12.4248 66.4939 12.1768C66.8921 11.9288 67.312 11.7335 67.76 11.594C68.208 11.4545 68.6529 11.3832 69.1008 11.3832C69.779 11.3832 70.3919 11.4917 70.9363 11.7056C71.4838 11.9195 71.9443 12.2543 72.3269 12.71C72.7065 13.1657 73.0051 13.764 73.2198 14.508L72.6754 14.4584L72.8496 14.0616C73.0642 13.6648 73.338 13.3021 73.6678 12.9704C73.9975 12.6387 74.3708 12.3597 74.7846 12.1272C75.1983 11.8947 75.6277 11.7149 76.0756 11.5816C76.5236 11.4483 76.9592 11.3832 77.3916 11.3832C78.4182 11.3832 79.2706 11.5847 79.9488 11.9908C80.627 12.3969 81.1372 13.0045 81.4763 13.8136C81.8154 14.6227 81.9865 15.6147 81.9865 16.7896V24.7504H78.4618V17.0376C78.4618 16.4424 78.3778 15.9557 78.2129 15.5744C78.048 15.1931 77.8084 14.9079 77.4942 14.7188C77.18 14.5297 76.7756 14.4336 76.2778 14.4336C75.8983 14.4336 75.5468 14.4956 75.2232 14.6196C74.8997 14.7436 74.6197 14.9172 74.3802 15.1404C74.1406 15.3636 73.954 15.6271 73.8233 15.934C73.6895 16.2409 73.6242 16.5664 73.6242 16.9136V24.7504H70.0746V17.0128C70.0746 16.4672 69.9906 15.9991 69.8257 15.6116C69.6608 15.2241 69.4213 14.9296 69.1071 14.7312C68.7929 14.5328 68.404 14.4336 67.9405 14.4336C67.5609 14.4336 67.2094 14.4956 66.8858 14.6196C66.5623 14.7436 66.2854 14.9172 66.0552 15.1404C65.8219 15.3636 65.6414 15.624 65.5108 15.9216C65.377 16.2192 65.3117 16.5416 65.3117 16.8888V24.7504H61.7558Z" fill="#213163"/>
<path d="M90.943 24.9984C89.6021 24.9984 88.4075 24.7039 87.356 24.118C86.3045 23.5321 85.477 22.7261 84.8735 21.7C84.2699 20.6739 83.9682 19.5021 83.9682 18.1784C83.9682 16.8547 84.2699 15.6829 84.8735 14.6568C85.477 13.6307 86.3045 12.8247 87.356 12.2388C88.4075 11.6529 89.6021 11.3584 90.943 11.3584C92.2838 11.3584 93.4535 11.6529 94.505 12.2388C95.5565 12.8247 96.3778 13.6307 96.9751 14.6568C97.5693 15.6829 97.868 16.8547 97.868 18.1784C97.868 19.5021 97.5693 20.6739 96.9751 21.7C96.3809 22.7261 95.5565 23.5321 94.505 24.118C93.4535 24.7039 92.2682 24.9984 90.943 24.9984ZM90.943 21.9232C91.5869 21.9232 92.1687 21.762 92.6789 21.4396C93.1922 21.1172 93.5935 20.6708 93.8828 20.1004C94.1721 19.53 94.309 18.8883 94.2935 18.1784C94.309 17.4499 94.1721 16.802 93.8828 16.2316C93.5935 15.6612 93.1922 15.2148 92.6789 14.8924C92.1656 14.57 91.5869 14.4088 90.943 14.4088C90.299 14.4088 89.6924 14.5731 89.1822 14.9048C88.6688 15.2365 88.2644 15.6829 87.9658 16.244C87.6671 16.8051 87.5271 17.4499 87.5427 18.1784C87.5271 18.8883 87.6671 19.53 87.9658 20.1004C88.2644 20.6708 88.6688 21.1172 89.1822 21.4396C89.6955 21.762 90.2834 21.9232 90.943 21.9232Z" fill="#213163"/>
<path d="M105.558 24.9984C104.333 24.9984 103.241 24.7039 102.282 24.118C101.321 23.5321 100.565 22.7292 100.011 21.7124C99.4577 20.6956 99.1808 19.5424 99.1808 18.2528C99.1808 16.9632 99.4577 15.81 100.011 14.7932C100.565 13.7764 101.321 12.9797 102.282 12.4C103.241 11.8203 104.342 11.532 105.583 11.532C106.691 11.532 107.702 11.7521 108.61 12.1892C109.519 12.6263 110.25 13.2339 110.794 14.012L109.702 15.3512C109.388 14.9389 109.011 14.5731 108.573 14.26C108.134 13.9469 107.661 13.702 107.157 13.5284C106.653 13.3548 106.152 13.268 105.655 13.268C104.777 13.268 103.99 13.4881 103.297 13.9252C102.603 14.3623 102.052 14.9544 101.645 15.6984C101.24 16.4424 101.038 17.2949 101.038 18.2528C101.038 19.2107 101.24 20.0663 101.645 20.8196C102.049 21.5729 102.6 22.1619 103.297 22.5928C103.99 23.0237 104.768 23.2376 105.63 23.2376C106.128 23.2376 106.613 23.1601 107.095 23.002C107.574 22.8439 108.028 22.6176 108.461 22.32C108.89 22.0224 109.288 21.6504 109.652 21.204L110.744 22.5432C110.181 23.2872 109.428 23.8824 108.486 24.3288C107.543 24.7752 106.566 24.9984 105.558 24.9984Z" fill="#C8102E"/>
<path d="M118.391 24.9984C117.1 24.9984 115.955 24.7101 114.953 24.1304C113.952 23.5507 113.168 22.7509 112.595 21.7248C112.026 20.6987 111.74 19.5331 111.74 18.228C111.74 16.9229 112.026 15.7883 112.595 14.7808C113.165 13.7733 113.952 12.9797 114.953 12.4C115.955 11.8203 117.1 11.532 118.391 11.532C119.682 11.532 120.802 11.8203 121.804 12.4C122.806 12.9797 123.589 13.7733 124.162 14.7808C124.734 15.7883 125.017 16.9384 125.017 18.228C125.017 19.5176 124.731 20.6987 124.162 21.7248C123.593 22.7509 122.806 23.5507 121.804 24.1304C120.802 24.7101 119.667 24.9984 118.391 24.9984ZM118.391 23.2376C119.299 23.2376 120.111 23.0175 120.824 22.5804C121.536 22.1433 122.09 21.5481 122.485 20.7948C122.88 20.0415 123.079 19.1859 123.079 18.228C123.079 17.2701 122.88 16.4176 122.485 15.6736C122.09 14.9296 121.533 14.3468 120.824 13.9252C120.111 13.5036 119.303 13.2928 118.391 13.2928C117.48 13.2928 116.668 13.5036 115.946 13.9252C115.227 14.3468 114.664 14.9327 114.26 15.686C113.855 16.4393 113.659 17.2856 113.678 18.228C113.662 19.1859 113.855 20.0415 114.26 20.7948C114.664 21.5481 115.227 22.1433 115.946 22.5804C116.664 23.0175 117.48 23.2376 118.391 23.2376Z" fill="#C8102E"/>
<path d="M127.226 24.7504V11.8048H129.062L129.136 14.508L128.838 14.632C129.003 14.0709 129.326 13.5563 129.805 13.0944C130.284 12.6325 130.86 12.2543 131.529 11.966C132.198 11.6777 132.888 11.532 133.601 11.532C134.559 11.532 135.361 11.7211 136.008 12.1024C136.652 12.4837 137.141 13.0696 137.474 13.8632C137.803 14.6568 137.971 15.6643 137.971 16.8888V24.7504H136.086V16.988C136.086 16.1293 135.974 15.4225 135.75 14.8676C135.526 14.3127 135.184 13.9035 134.721 13.64C134.257 13.3765 133.688 13.2525 133.009 13.268C132.446 13.268 131.927 13.3641 131.445 13.5532C130.966 13.7423 130.552 14.0027 130.203 14.3344C129.855 14.6661 129.584 15.0443 129.385 15.4752C129.186 15.9061 129.087 16.368 129.087 16.864V24.7504H127.226Z" fill="#C8102E"/>
<path d="M139.882 13.5904V11.8048H147.948V13.5904H139.882ZM142.812 24.7504V8.4072H144.673V24.7504H142.812Z" fill="#C8102E"/>
<path d="M154.674 24.9984C153.548 24.9984 152.531 24.7039 151.622 24.118C150.711 23.5321 149.992 22.7292 149.463 21.7124C148.935 20.6956 148.67 19.5424 148.67 18.2528C148.67 16.9632 148.944 15.7883 149.488 14.7808C150.036 13.7733 150.767 12.9797 151.685 12.4C152.602 11.8203 153.632 11.532 154.774 11.532C155.452 11.532 156.08 11.6312 156.659 11.8296C157.238 12.028 157.754 12.3039 158.211 12.6604C158.666 13.0169 159.048 13.4292 159.353 13.9004C159.658 14.3716 159.87 14.88 159.985 15.4256L159.437 15.1528L159.512 11.8048H161.372V24.7504H159.487V21.576L159.985 21.2536C159.87 21.7496 159.646 22.2239 159.316 22.6796C158.986 23.1353 158.585 23.5352 158.112 23.8824C157.639 24.2296 157.11 24.5024 156.522 24.7008C155.934 24.8992 155.318 24.9984 154.674 24.9984ZM155.094 23.2128C155.953 23.2128 156.724 23.002 157.403 22.5804C158.081 22.1588 158.616 21.5729 159.005 20.8196C159.394 20.0663 159.586 19.2107 159.586 18.2528C159.586 17.2949 159.39 16.4424 159.005 15.6984C158.616 14.9544 158.081 14.3685 157.403 13.9376C156.724 13.5067 155.956 13.2928 155.094 13.2928C154.233 13.2928 153.442 13.5067 152.773 13.9376C152.105 14.3685 151.573 14.9544 151.184 15.6984C150.795 16.4424 150.602 17.2949 150.602 18.2528C150.602 19.2107 150.792 20.0415 151.171 20.7948C151.551 21.5481 152.08 22.1371 152.761 22.568C153.439 22.9989 154.217 23.2128 155.094 23.2128Z" fill="#C8102E"/>
<path d="M169.962 24.9984C168.736 24.9984 167.644 24.7039 166.686 24.118C165.724 23.5321 164.968 22.7292 164.415 21.7124C163.861 20.6956 163.584 19.5424 163.584 18.2528C163.584 16.9632 163.861 15.81 164.415 14.7932C164.968 13.7764 165.724 12.9797 166.686 12.4C167.644 11.8203 168.745 11.532 169.986 11.532C171.094 11.532 172.105 11.7521 173.013 12.1892C173.922 12.6263 174.653 13.2339 175.197 14.012L174.105 15.3512C173.791 14.9389 173.415 14.5731 172.976 14.26C172.537 13.9469 172.065 13.702 171.561 13.5284C171.057 13.3548 170.556 13.268 170.058 13.268C169.181 13.268 168.394 13.4881 167.7 13.9252C167.006 14.3623 166.456 14.9544 166.048 15.6984C165.644 16.4424 165.441 17.2949 165.441 18.2528C165.441 19.2107 165.644 20.0663 166.048 20.8196C166.452 21.5729 167.003 22.1619 167.7 22.5928C168.394 23.0237 169.171 23.2376 170.033 23.2376C170.531 23.2376 171.016 23.1601 171.498 23.002C171.977 22.8439 172.432 22.6176 172.864 22.32C173.293 22.0224 173.692 21.6504 174.056 21.204L175.148 22.5432C174.584 23.2872 173.832 23.8824 172.889 24.3288C171.946 24.7752 170.97 24.9984 169.962 24.9984Z" fill="#C8102E"/>
<path d="M175.919 13.5904V11.8048H183.986V13.5904H175.919ZM178.847 24.7504V8.4072H180.707V24.7504H178.847Z" fill="#C8102E"/>
<path d="M183.6 24.9984C183.336 24.9984 183.099 24.9364 182.885 24.8124C182.67 24.6884 182.502 24.5241 182.374 24.3164C182.25 24.1087 182.188 23.8762 182.188 23.6189C182.188 23.4267 182.225 23.2469 182.297 23.0826C182.368 22.9183 182.471 22.7726 182.598 22.6455C182.726 22.5184 182.878 22.4192 183.049 22.351C183.221 22.2797 183.404 22.2456 183.597 22.2456C183.79 22.2456 183.967 22.2828 184.135 22.3541C184.303 22.4254 184.456 22.5246 184.583 22.6486C184.714 22.7726 184.813 22.9183 184.885 23.0826C184.956 23.2469 184.994 23.4267 184.994 23.6189C184.994 23.8111 184.956 23.9909 184.885 24.1552C184.813 24.3195 184.711 24.4652 184.586 24.5923C184.459 24.7194 184.309 24.8186 184.141 24.8868C183.97 24.9581 183.79 24.9922 183.597 24.9922L183.6 24.9984ZM183.6 24.6822C183.799 24.6822 183.98 24.6357 184.144 24.5396C184.309 24.4466 184.443 24.3164 184.543 24.1552C184.642 23.994 184.692 23.8142 184.692 23.6189C184.692 23.4236 184.642 23.2438 184.543 23.0826C184.443 22.9214 184.312 22.7912 184.144 22.6951C183.98 22.599 183.796 22.5494 183.6 22.5494C183.404 22.5494 183.208 22.599 183.043 22.6951C182.878 22.7912 182.745 22.9214 182.645 23.0826C182.545 23.2438 182.496 23.4236 182.496 23.6189C182.496 23.8142 182.545 23.994 182.645 24.1552C182.745 24.3164 182.875 24.4435 183.043 24.5396C183.208 24.6357 183.395 24.6822 183.6 24.6822ZM183.09 24.3257V22.8625H183.709C183.849 22.8625 183.967 22.9059 184.054 22.9896C184.144 23.0733 184.188 23.1818 184.188 23.3151C184.188 23.4484 184.141 23.5569 184.048 23.6437C183.955 23.7305 183.843 23.7739 183.709 23.7739H183.249L183.376 23.7026V24.3257H183.09ZM183.376 23.6034L183.261 23.5414H183.619C183.703 23.5414 183.774 23.5228 183.827 23.4825C183.883 23.4453 183.908 23.3957 183.908 23.3337C183.908 23.2655 183.883 23.2128 183.84 23.1756C183.793 23.1384 183.725 23.1198 183.631 23.1198H183.242L183.376 23.0547V23.6034ZM183.88 24.3257L183.613 23.7212L183.874 23.6375L184.188 24.3257H183.88Z" fill="var(--fill-0, #C8102E)"/>
</g>
<g id="Vector_2">
<path d="M25.4756 8.77915L13.7193 0.28515C13.2713 -0.09305 12.6118 -0.09305 12.1638 0.28515L0.441657 8.75125L0.407436 8.77915C0.149226 9.00545 0.00301007 9.33405 0.00301007 9.67815V23.6126C0.00301007 24.2729 0.541208 24.8092 1.20384 24.8092H4.43614V29.8002C4.43614 30.2776 4.72235 30.7116 5.161 30.9007C5.31343 30.9658 5.47209 30.9999 5.63698 30.9999C5.94496 30.9999 6.23739 30.8852 6.46138 30.6744L12.6989 24.8092H24.6761C25.3387 24.8092 25.8801 24.2729 25.8801 23.6126V9.67815C25.8801 9.33405 25.7307 9.00855 25.4756 8.78225V8.77915ZM5.63698 22.4129H2.40468V10.2485L12.9415 2.74965L23.4784 10.2485V22.4129H12.226C11.918 22.4129 11.6256 22.5276 11.4016 22.7384L6.84403 27.0226V23.6095C6.84403 22.9492 6.30583 22.4098 5.6432 22.4098L5.63698 22.4129Z" fill="#213163"/>
<path d="M6.87203 11.938H13.0442C13.4766 11.938 13.825 11.5908 13.825 11.1599C13.825 10.729 13.4766 10.3818 13.0442 10.3818H6.87203C6.43961 10.3818 6.09118 10.729 6.09118 11.1599C6.09118 11.5908 6.43961 11.938 6.87203 11.938Z" fill="var(--fill-0, #C8102E)"/>
<path d="M19.2972 15.1589H19.3004C19.7297 15.1589 20.0781 14.8117 20.0812 14.3839C20.0812 13.953 19.7359 13.6027 19.3035 13.5996L6.87203 13.5314H6.86892C6.4396 13.5314 6.09118 13.8786 6.08807 14.3064C6.08807 14.7373 6.43338 15.0876 6.86581 15.0907L19.2972 15.1589Z" fill="var(--fill-0, #C8102E)"/>
<path d="M19.3035 17.0344H13.4922C13.0597 17.0344 12.7113 17.3816 12.7113 17.8125C12.7113 18.2434 13.0597 18.5906 13.4922 18.5906H19.3035C19.7359 18.5906 20.0843 18.2434 20.0843 17.8125C20.0843 17.3816 19.7359 17.0344 19.3035 17.0344Z" fill="var(--fill-0, #C8102E)"/>
</g>
</g>
<defs>
<clipPath id="clip0_0_148">
<rect width="185" height="31" fill="white"/>
</clipPath>
</defs>
</svg>
