<svg viewBox="0 0 33.1667 34.8333" fill="none" xmlns="http://www.w3.org/2000/svg">
<g id="elements">
<path id="Vector" d="M26.5833 0.75V4.08333M6.58333 0.75V4.08333" stroke="var(--stroke-0, #213163)" stroke-width="1.5" stroke-linecap="round" stroke-linejoin="round"/>
<path id="Vector_2" d="M16.5759 19.0833H16.5908M16.5759 25.75H16.5908M23.235 19.0833H23.25M9.91667 19.0833H9.93162M9.91667 25.75H9.93162" stroke="var(--stroke-0, #213163)" stroke-width="2" stroke-linecap="round" stroke-linejoin="round"/>
<path id="Vector 4046" d="M2.41667 10.75H30.75" stroke="var(--stroke-0, #213163)" stroke-width="1.5" stroke-linecap="round" stroke-linejoin="round"/>
<path id="Vector_3" d="M0.75 17.8221C0.75 10.5599 0.75 6.92881 2.83686 4.67274C4.92373 2.41667 8.28249 2.41667 15 2.41667H18.1667C24.8842 2.41667 28.2429 2.41667 30.3298 4.67274C32.4167 6.92881 32.4167 10.5599 32.4167 17.8221V18.6779C32.4167 25.9401 32.4167 29.5712 30.3298 31.8273C28.2429 34.0833 24.8842 34.0833 18.1667 34.0833H15C8.28249 34.0833 4.92373 34.0833 2.83686 31.8273C0.75 29.5712 0.75 25.9401 0.75 18.6779V17.8221Z" stroke="var(--stroke-0, #213163)" stroke-width="1.5" stroke-linecap="round" stroke-linejoin="round"/>
<path id="Vector 4049" d="M1.58333 10.75H31.5833" stroke="var(--stroke-0, #213163)" stroke-width="1.5" stroke-linecap="round" stroke-linejoin="round"/>
</g>
</svg>
