<svg viewBox="0 0 100 28" fill="none" xmlns="http://www.w3.org/2000/svg">
<g id="Vector">
<path fill-rule="evenodd" clip-rule="evenodd" d="M13.0563 28L12.896 21.4596L13.3544 21.0698C15.4268 21.3137 17.2824 21.5342 19.3518 21.7841L18.8276 19.9961C18.7433 19.6814 18.8622 19.3394 19.0975 19.148L25.1143 14.0906L23.8672 13.4834C23.3207 13.2808 23.4746 12.9636 23.6695 12.1965L24.5863 8.7399L21.0948 9.49978C20.7524 9.55351 20.5259 9.32878 20.4761 9.11643L20.024 7.49006L17.2613 10.6925C16.8687 11.2055 16.0741 11.2055 16.3221 10.0192L17.5025 3.53203L15.9198 4.38189C15.474 4.63731 15.0316 4.67996 14.7794 4.22156L12.5569 0L10.3336 4.2207C10.086 4.6791 9.64027 4.63774 9.19703 4.38189L7.61429 3.53203L8.79555 10.0183C9.04015 11.2059 8.24561 11.2059 7.85299 10.6925L5.09025 7.49006L4.64069 9.11643C4.58713 9.32878 4.36488 9.55351 4.02201 9.50063L0.527581 8.7399L1.44442 12.1956C1.64221 12.9623 1.79614 13.2808 1.24958 13.4842L0 14.0906L6.01678 19.1471C6.25548 19.3381 6.37736 19.6823 6.29259 19.9961L5.76501 21.7841C7.83443 21.5346 9.69003 21.315 11.7624 21.0698L12.2208 21.4596L12.0614 28H13.0563Z" fill="var(--fill-0, #C8102E)"/>
<path d="M88.9308 27V19.65H90.3794V21.162L90.1262 21.33C90.22 21.0033 90.4028 20.7046 90.6747 20.434C90.9466 20.154 91.2701 19.93 91.6451 19.762C92.0201 19.5846 92.4046 19.496 92.7983 19.496C93.3609 19.496 93.8297 19.608 94.2047 19.832C94.5797 20.0466 94.861 20.378 95.0485 20.826C95.236 21.274 95.3298 21.8386 95.3298 22.52V27H93.8812V22.618C93.8812 22.198 93.825 21.8526 93.7125 21.582C93.6 21.302 93.4265 21.1013 93.1921 20.98C92.9577 20.8493 92.6671 20.7933 92.3202 20.812C92.0389 20.812 91.7811 20.8586 91.5467 20.952C91.3123 21.036 91.106 21.1573 90.9279 21.316C90.7591 21.4746 90.6231 21.6613 90.52 21.876C90.4262 22.0813 90.3794 22.3053 90.3794 22.548V27H89.6621C89.5402 27 89.4183 27 89.2965 27C89.1746 27 89.0527 27 88.9308 27Z" fill="var(--fill-0, #C8102E)"/>
<path d="M84.1359 27.1401C83.3765 27.1401 82.7014 26.9814 82.1108 26.6641C81.5295 26.3374 81.07 25.8941 80.7325 25.3341C80.4043 24.7741 80.2403 24.1301 80.2403 23.4021C80.2403 22.8234 80.334 22.2961 80.5215 21.8201C80.7091 21.3441 80.9669 20.9334 81.2951 20.5881C81.6326 20.2334 82.0311 19.9627 82.4905 19.7761C82.9593 19.5801 83.4656 19.4821 84.0094 19.4821C84.4875 19.4821 84.9329 19.5754 85.3454 19.7621C85.758 19.9394 86.1142 20.1867 86.4143 20.5041C86.7237 20.8214 86.9581 21.1994 87.1175 21.6381C87.2862 22.0674 87.3659 22.5387 87.3565 23.0521L87.3425 23.6681H81.3091L80.9856 22.5201H86.0908L85.8798 22.7581V22.4221C85.8517 22.1141 85.7486 21.8387 85.5704 21.5961C85.3923 21.3534 85.1673 21.1621 84.8954 21.0221C84.6235 20.8821 84.3281 20.8121 84.0094 20.8121C83.5031 20.8121 83.0765 20.9101 82.7296 21.1061C82.3826 21.2927 82.1201 21.5727 81.942 21.9461C81.7638 22.3101 81.6748 22.7627 81.6748 23.3041C81.6748 23.8174 81.7826 24.2654 81.9982 24.6481C82.2139 25.0214 82.5186 25.3107 82.9124 25.5161C83.3062 25.7214 83.7609 25.8241 84.2766 25.8241C84.6422 25.8241 84.9798 25.7634 85.2892 25.6421C85.6079 25.5207 85.9502 25.3014 86.3158 24.9841L87.0471 26.0061C86.8221 26.2301 86.5455 26.4261 86.2174 26.5941C85.8986 26.7621 85.5564 26.8974 85.1907 27.0001C84.8344 27.0934 84.4828 27.1401 84.1359 27.1401Z" fill="var(--fill-0, #C8102E)"/>
<path d="M77.0151 27.0001V19.6501H78.4637V27.0001H77.0151ZM77.7183 18.0261C77.4089 18.0261 77.1698 17.9467 77.001 17.7881C76.8323 17.6294 76.7479 17.4054 76.7479 17.1161C76.7479 16.8454 76.8323 16.6261 77.001 16.4581C77.1792 16.2901 77.4183 16.2061 77.7183 16.2061C78.0277 16.2061 78.2668 16.2854 78.4355 16.4441C78.6043 16.6027 78.6887 16.8267 78.6887 17.1161C78.6887 17.3867 78.5996 17.6061 78.4215 17.7741C78.2527 17.9421 78.0183 18.0261 77.7183 18.0261Z" fill="var(--fill-0, #C8102E)"/>
<path d="M70.9426 27.14C70.2675 27.14 69.6628 26.9767 69.1284 26.65C68.6033 26.314 68.1861 25.8613 67.8767 25.292C67.5673 24.7133 67.4126 24.0553 67.4126 23.318C67.4126 22.5807 67.5626 21.9273 67.8626 21.358C68.172 20.7793 68.5892 20.3267 69.1143 20C69.6393 19.664 70.2347 19.496 70.9004 19.496C71.2661 19.496 71.6176 19.5567 71.9552 19.678C72.3021 19.79 72.6115 19.9487 72.8834 20.154C73.1553 20.35 73.3662 20.5693 73.5163 20.812C73.6756 21.0453 73.7553 21.2833 73.7553 21.526L73.3334 21.554V16.64H74.782V27H73.3334V25.25H73.6147C73.6147 25.474 73.5397 25.698 73.3897 25.922C73.2397 26.1367 73.0381 26.3373 72.7849 26.524C72.5412 26.7107 72.2552 26.86 71.9271 26.972C71.6083 27.084 71.2801 27.14 70.9426 27.14ZM71.1395 25.894C71.5801 25.894 71.9692 25.782 72.3068 25.558C72.6443 25.334 72.9068 25.0307 73.0943 24.648C73.2912 24.256 73.3897 23.8127 73.3897 23.318C73.3897 22.8233 73.2912 22.3847 73.0943 22.002C72.9068 21.61 72.6443 21.302 72.3068 21.078C71.9692 20.854 71.5801 20.742 71.1395 20.742C70.6988 20.742 70.3097 20.854 69.9722 21.078C69.6347 21.302 69.3674 21.61 69.1706 22.002C68.983 22.3847 68.8893 22.8233 68.8893 23.318C68.8893 23.8127 68.983 24.256 69.1706 24.648C69.3674 25.0307 69.6347 25.334 69.9722 25.558C70.3097 25.782 70.6988 25.894 71.1395 25.894Z" fill="var(--fill-0, #C8102E)"/>
<path d="M61.8037 27.14C61.1943 27.14 60.6364 26.972 60.1301 26.636C59.6332 26.3 59.2347 25.8426 58.9347 25.264C58.6347 24.6853 58.4847 24.032 58.4847 23.304C58.4847 22.5666 58.6347 21.9133 58.9347 21.344C59.2441 20.7653 59.6566 20.3126 60.1723 19.986C60.6973 19.6593 61.2833 19.496 61.9303 19.496C62.3147 19.496 62.6663 19.552 62.9851 19.664C63.3038 19.776 63.5804 19.9346 63.8148 20.14C64.0586 20.336 64.2555 20.5646 64.4055 20.826C64.5649 21.0873 64.6633 21.3673 64.7008 21.666L64.3774 21.554V19.65H65.84V27H64.3774V25.25L64.7149 25.152C64.6586 25.404 64.5414 25.6513 64.3633 25.894C64.1945 26.1273 63.9742 26.3373 63.7023 26.524C63.4398 26.7106 63.1444 26.86 62.8163 26.972C62.4975 27.084 62.16 27.14 61.8037 27.14ZM62.1834 25.81C62.6241 25.81 63.0132 25.7026 63.3507 25.488C63.6882 25.2733 63.9508 24.9793 64.1383 24.606C64.3352 24.2233 64.4336 23.7893 64.4336 23.304C64.4336 22.828 64.3352 22.4033 64.1383 22.03C63.9508 21.6566 63.6882 21.3626 63.3507 21.148C63.0132 20.9333 62.6241 20.826 62.1834 20.826C61.7521 20.826 61.3677 20.9333 61.0302 21.148C60.702 21.3626 60.4395 21.6566 60.2426 22.03C60.0551 22.4033 59.9613 22.828 59.9613 23.304C59.9613 23.7893 60.0551 24.2233 60.2426 24.606C60.4395 24.9793 60.702 25.2733 61.0302 25.488C61.3677 25.7026 61.7521 25.81 62.1834 25.81Z" fill="var(--fill-0, #C8102E)"/>
<path d="M50.5988 27V19.65H52.0474V21.162L51.7942 21.33C51.888 21.0033 52.0708 20.7046 52.3427 20.434C52.6146 20.154 52.9381 19.93 53.3131 19.762C53.6881 19.5846 54.0725 19.496 54.4663 19.496C55.0289 19.496 55.4977 19.608 55.8727 19.832C56.2477 20.0466 56.529 20.378 56.7165 20.826C56.9041 21.274 56.9978 21.8386 56.9978 22.52V27H55.5492V22.618C55.5492 22.198 55.493 21.8526 55.3805 21.582C55.268 21.302 55.0945 21.1013 54.8601 20.98C54.6257 20.8493 54.3351 20.7933 53.9882 20.812C53.7069 20.812 53.4491 20.8586 53.2147 20.952C52.9803 21.036 52.774 21.1573 52.5959 21.316C52.4271 21.4746 52.2911 21.6613 52.188 21.876C52.0942 22.0813 52.0474 22.3053 52.0474 22.548V27H51.3301C51.2082 27 51.0863 27 50.9645 27C50.8426 27 50.7207 27 50.5988 27Z" fill="var(--fill-0, #C8102E)"/>
<path d="M44.5399 27.14C43.9304 27.14 43.3726 26.972 42.8663 26.636C42.3694 26.3 41.9709 25.8426 41.6709 25.264C41.3708 24.6853 41.2208 24.032 41.2208 23.304C41.2208 22.5666 41.3708 21.9133 41.6709 21.344C41.9803 20.7653 42.3928 20.3126 42.9085 19.986C43.4335 19.6593 44.0195 19.496 44.6665 19.496C45.0509 19.496 45.4025 19.552 45.7212 19.664C46.04 19.776 46.3166 19.9346 46.551 20.14C46.7948 20.336 46.9917 20.5646 47.1417 20.826C47.3011 21.0873 47.3995 21.3673 47.437 21.666L47.1135 21.554V19.65H48.5762V27H47.1135V25.25L47.4511 25.152C47.3948 25.404 47.2776 25.6513 47.0995 25.894C46.9307 26.1273 46.7104 26.3373 46.4385 26.524C46.176 26.7106 45.8806 26.86 45.5525 26.972C45.2337 27.084 44.8962 27.14 44.5399 27.14ZM44.9196 25.81C45.3603 25.81 45.7494 25.7026 46.0869 25.488C46.4244 25.2733 46.6869 24.9793 46.8745 24.606C47.0714 24.2233 47.1698 23.7893 47.1698 23.304C47.1698 22.828 47.0714 22.4033 46.8745 22.03C46.6869 21.6566 46.4244 21.3626 46.0869 21.148C45.7494 20.9333 45.3603 20.826 44.9196 20.826C44.4883 20.826 44.1039 20.9333 43.7664 21.148C43.4382 21.3626 43.1757 21.6566 42.9788 22.03C42.7913 22.4033 42.6975 22.828 42.6975 23.304C42.6975 23.7893 42.7913 24.2233 42.9788 24.606C43.1757 24.9793 43.4382 25.2733 43.7664 25.488C44.1039 25.7026 44.4883 25.81 44.9196 25.81Z" fill="var(--fill-0, #C8102E)"/>
<path d="M36.5137 27.14C35.8292 27.14 35.2011 27.0186 34.6291 26.776C34.0572 26.5333 33.5603 26.188 33.1384 25.74C32.7165 25.2826 32.3883 24.746 32.1539 24.13C31.9289 23.514 31.8164 22.8373 31.8164 22.1C31.8164 21.4 31.9383 20.7513 32.182 20.154C32.4352 19.5473 32.7821 19.0153 33.2228 18.558C33.6634 18.1006 34.1744 17.746 34.7557 17.494C35.337 17.242 35.9652 17.116 36.6402 17.116C37.1184 17.116 37.5825 17.1906 38.0326 17.34C38.492 17.48 38.9045 17.6806 39.2702 17.942C39.6452 18.194 39.9499 18.4833 40.1843 18.81L39.1717 19.86C38.8998 19.5893 38.6232 19.3653 38.342 19.188C38.0701 19.0013 37.7888 18.8613 37.4981 18.768C37.2169 18.6746 36.9309 18.628 36.6402 18.628C36.1808 18.628 35.7495 18.7166 35.3464 18.894C34.9526 19.062 34.6057 19.3 34.3057 19.608C34.015 19.916 33.7853 20.2846 33.6165 20.714C33.4478 21.134 33.3634 21.596 33.3634 22.1C33.3634 22.632 33.4431 23.1173 33.6025 23.556C33.7712 23.9853 34.0056 24.354 34.3057 24.662C34.6057 24.97 34.962 25.208 35.3745 25.376C35.7964 25.5346 36.2605 25.614 36.7668 25.614C37.0762 25.614 37.3809 25.572 37.681 25.488C37.981 25.404 38.2623 25.2826 38.5248 25.124C38.7873 24.9653 39.0264 24.7786 39.242 24.564L40.0015 25.796C39.7858 26.048 39.4905 26.2766 39.1155 26.482C38.7498 26.6873 38.3373 26.8506 37.8779 26.972C37.4278 27.084 36.9731 27.14 36.5137 27.14Z" fill="var(--fill-0, #C8102E)"/>
<path d="M96.8357 12V2.77405H98.2842V12H96.8357ZM95.3027 6.05005V4.65005H100V6.05005H95.3027Z" fill="var(--fill-0, #C8102E)"/>
<path d="M87.5574 12V4.64997H89.006V6.16197L88.7528 6.32997C88.8466 6.0033 89.0294 5.70464 89.3013 5.43397C89.5732 5.15397 89.8967 4.92997 90.2717 4.76197C90.6467 4.58464 91.0311 4.49597 91.4249 4.49597C91.9875 4.49597 92.4563 4.60797 92.8313 4.83197C93.2063 5.04664 93.4876 5.37797 93.6751 5.82597C93.8626 6.27397 93.9564 6.83864 93.9564 7.51997V12H92.5078V7.61797C92.5078 7.19797 92.4516 6.85264 92.3391 6.58197C92.2266 6.30197 92.0531 6.10131 91.8187 5.97997C91.5843 5.8493 91.2937 5.7933 90.9468 5.81197C90.6655 5.81197 90.4076 5.85864 90.1732 5.95197C89.9389 6.03597 89.7326 6.15731 89.5544 6.31597C89.3857 6.47464 89.2497 6.6613 89.1466 6.87597C89.0528 7.0813 89.006 7.3053 89.006 7.54797V12H88.2887C88.1668 12 88.0449 12 87.923 12C87.8012 12 87.6793 12 87.5574 12Z" fill="var(--fill-0, #C8102E)"/>
<path d="M82.7625 12.1401C82.0031 12.1401 81.328 11.9814 80.7373 11.6641C80.156 11.3374 79.6966 10.8941 79.3591 10.3341C79.0309 9.77405 78.8669 9.13006 78.8669 8.40206C78.8669 7.82339 78.9606 7.29606 79.1481 6.82006C79.3356 6.34406 79.5935 5.93339 79.9216 5.58806C80.2592 5.23339 80.6576 4.96272 81.1171 4.77606C81.5859 4.58006 82.0921 4.48206 82.6359 4.48206C83.1141 4.48206 83.5595 4.57539 83.972 4.76206C84.3845 4.93939 84.7408 5.18672 85.0408 5.50406C85.3502 5.82139 85.5847 6.19939 85.744 6.63806C85.9128 7.06739 85.9925 7.53872 85.9831 8.05206L85.9691 8.66806H79.9357L79.6122 7.52006H84.7174L84.5064 7.75806V7.42206C84.4783 7.11406 84.3752 6.83872 84.197 6.59606C84.0189 6.35339 83.7939 6.16206 83.522 6.02206C83.2501 5.88206 82.9547 5.81206 82.6359 5.81206C82.1297 5.81206 81.703 5.91006 81.3561 6.10606C81.0092 6.29272 80.7467 6.57272 80.5686 6.94606C80.3904 7.31006 80.3014 7.76272 80.3014 8.30406C80.3014 8.81739 80.4092 9.26539 80.6248 9.64806C80.8405 10.0214 81.1452 10.3107 81.539 10.5161C81.9328 10.7214 82.3875 10.8241 82.9032 10.8241C83.2688 10.8241 83.6063 10.7634 83.9158 10.6421C84.2345 10.5207 84.5768 10.3014 84.9424 9.98406L85.6737 11.0061C85.4487 11.2301 85.1721 11.4261 84.844 11.5941C84.5252 11.7621 84.183 11.8974 83.8173 12.0001C83.461 12.0934 83.1094 12.1401 82.7625 12.1401Z" fill="var(--fill-0, #C8102E)"/>
<path d="M66.3374 12V4.65005H67.8V6.21805L67.5328 6.38605C67.6078 6.14338 67.725 5.91005 67.8844 5.68605C68.0532 5.46205 68.2548 5.26605 68.4891 5.09805C68.7329 4.92071 68.9908 4.78072 69.2627 4.67805C69.5439 4.57538 69.8299 4.52405 70.1205 4.52405C70.5425 4.52405 70.9128 4.59405 71.2316 4.73405C71.5504 4.87405 71.8129 5.08405 72.0192 5.36405C72.2254 5.64405 72.3754 5.99405 72.4692 6.41405L72.2442 6.35805L72.3426 6.12005C72.4458 5.90538 72.5864 5.70472 72.7645 5.51805C72.952 5.32205 73.163 5.14938 73.3974 5.00005C73.6318 4.85071 73.8803 4.73405 74.1428 4.65005C74.4053 4.56605 74.6631 4.52405 74.9163 4.52405C75.4695 4.52405 75.9242 4.63605 76.2805 4.86005C76.6461 5.08405 76.918 5.42472 77.0962 5.88205C77.2837 6.33938 77.3775 6.90871 77.3775 7.59005V12H75.9148V7.67405C75.9148 7.25405 75.8586 6.91338 75.746 6.65205C75.6429 6.38138 75.4835 6.18072 75.2679 6.05005C75.0522 5.91938 74.7756 5.85405 74.4381 5.85405C74.1756 5.85405 73.9271 5.90071 73.6927 5.99405C73.4677 6.07805 73.2708 6.19938 73.1021 6.35805C72.9333 6.51672 72.802 6.70338 72.7083 6.91805C72.6145 7.12338 72.5676 7.35205 72.5676 7.60405V12H71.105V7.64605C71.105 7.26338 71.0488 6.94138 70.9362 6.68005C70.8237 6.40938 70.6597 6.20405 70.444 6.06405C70.2284 5.92405 69.9658 5.85405 69.6564 5.85405C69.3939 5.85405 69.1502 5.90071 68.9251 5.99405C68.7001 6.07805 68.5032 6.19938 68.3344 6.35805C68.1657 6.50738 68.0344 6.68938 67.9407 6.90405C67.8469 7.10938 67.8 7.33338 67.8 7.57605V12H66.3374Z" fill="var(--fill-0, #C8102E)"/>
<path d="M61.5707 12.1401C60.8113 12.1401 60.1362 11.9814 59.5456 11.6641C58.9642 11.3374 58.5048 10.8941 58.1673 10.3341C57.8391 9.77405 57.6751 9.13006 57.6751 8.40206C57.6751 7.82339 57.7688 7.29606 57.9563 6.82006C58.1439 6.34406 58.4017 5.93339 58.7299 5.58806C59.0674 5.23339 59.4659 4.96272 59.9253 4.77606C60.3941 4.58006 60.9004 4.48206 61.4442 4.48206C61.9223 4.48206 62.3677 4.57539 62.7802 4.76206C63.1928 4.93939 63.549 5.18672 63.8491 5.50406C64.1585 5.82139 64.3929 6.19939 64.5523 6.63806C64.721 7.06739 64.8007 7.53872 64.7913 8.05206L64.7773 8.66806H58.7439L58.4205 7.52006H63.5256L63.3146 7.75806V7.42206C63.2865 7.11406 63.1834 6.83872 63.0052 6.59606C62.8271 6.35339 62.6021 6.16206 62.3302 6.02206C62.0583 5.88206 61.7629 5.81206 61.4442 5.81206C60.9379 5.81206 60.5113 5.91006 60.1644 6.10606C59.8175 6.29272 59.5549 6.57272 59.3768 6.94606C59.1986 7.31006 59.1096 7.76272 59.1096 8.30406C59.1096 8.81739 59.2174 9.26539 59.433 9.64806C59.6487 10.0214 59.9534 10.3107 60.3472 10.5161C60.741 10.7214 61.1957 10.8241 61.7114 10.8241C62.077 10.8241 62.4146 10.7634 62.724 10.6421C63.0427 10.5207 63.385 10.3014 63.7506 9.98406L64.4819 11.0061C64.2569 11.2301 63.9803 11.4261 63.6522 11.5941C63.3334 11.7621 62.9912 11.8974 62.6255 12.0001C62.2692 12.0934 61.9176 12.1401 61.5707 12.1401Z" fill="var(--fill-0, #C8102E)"/>
<path d="M52.7688 12V4.64997H54.2314V6.95997L54.0908 6.39997C54.1939 6.04531 54.3674 5.72331 54.6111 5.43397C54.8643 5.14464 55.1503 4.91597 55.469 4.74797C55.7972 4.57997 56.1347 4.49597 56.4816 4.49597C56.641 4.49597 56.791 4.50997 56.9317 4.53797C57.0817 4.56597 57.1989 4.59864 57.2833 4.63597L56.9035 6.20397C56.791 6.1573 56.6645 6.11997 56.5238 6.09197C56.3926 6.05464 56.2613 6.03597 56.13 6.03597C55.8769 6.03597 55.6331 6.0873 55.3987 6.18997C55.1737 6.2833 54.9721 6.41864 54.794 6.59597C54.6252 6.76397 54.4893 6.96464 54.3861 7.19797C54.283 7.42197 54.2314 7.6693 54.2314 7.93997V12H52.7688Z" fill="var(--fill-0, #C8102E)"/>
<path d="M47.9739 12.14C47.2145 12.14 46.5394 11.9813 45.9487 11.664C45.3674 11.3373 44.908 10.894 44.5705 10.334C44.2423 9.774 44.0783 9.13 44.0783 8.402C44.0783 7.82334 44.172 7.296 44.3595 6.82C44.5471 6.344 44.8049 5.93334 45.133 5.588C45.4706 5.23334 45.8691 4.96267 46.3285 4.776C46.7973 4.58 47.3036 4.482 47.8474 4.482C48.3255 4.482 48.7709 4.57534 49.1834 4.762C49.596 4.93934 49.9522 5.18667 50.2523 5.504C50.5617 5.82134 50.7961 6.19934 50.9554 6.638C51.1242 7.06734 51.2039 7.53867 51.1945 8.052L51.1805 8.668H45.1471L44.8236 7.52H49.9288L49.7178 7.758V7.422C49.6897 7.114 49.5866 6.83867 49.4084 6.596C49.2303 6.35334 49.0053 6.162 48.7334 6.022C48.4615 5.882 48.1661 5.812 47.8474 5.812C47.3411 5.812 46.9145 5.91 46.5676 6.106C46.2206 6.29267 45.9581 6.57267 45.78 6.946C45.6018 7.31 45.5128 7.76267 45.5128 8.304C45.5128 8.81734 45.6206 9.26534 45.8362 9.648C46.0519 10.0213 46.3566 10.3107 46.7504 10.516C47.1442 10.7213 47.5989 10.824 48.1146 10.824C48.4802 10.824 48.8178 10.7633 49.1272 10.642C49.4459 10.5207 49.7882 10.3013 50.1538 9.984L50.8851 11.006C50.6601 11.23 50.3835 11.426 50.0554 11.594C49.7366 11.762 49.3944 11.8973 49.0287 12C48.6724 12.0933 48.3208 12.14 47.9739 12.14ZM48.5505 3.516L46.1034 2.2L47.0176 1.052L49.0287 2.802L48.5505 3.516Z" fill="var(--fill-0, #C8102E)"/>
<path d="M40.8531 12.0001V4.65005H42.3017V12.0001H40.8531ZM41.5563 3.02605C41.2469 3.02605 41.0078 2.94672 40.839 2.78805C40.6703 2.62939 40.5859 2.40539 40.5859 2.11605C40.5859 1.84539 40.6703 1.62605 40.839 1.45805C41.0172 1.29005 41.2562 1.20605 41.5563 1.20605C41.8657 1.20605 42.1048 1.28539 42.2735 1.44405C42.4423 1.60272 42.5267 1.82672 42.5267 2.11605C42.5267 2.38672 42.4376 2.60605 42.2595 2.77405C42.0907 2.94205 41.8563 3.02605 41.5563 3.02605Z" fill="var(--fill-0, #C8102E)"/>
<path d="M32.5195 12V2.19995H34.0384V12H32.5195ZM33.1946 7.82795V6.37195H38.2716V7.82795H33.1946ZM33.1946 3.65595V2.19995H38.9045V3.65595H33.1946Z" fill="var(--fill-0, #C8102E)"/>
</g>
</svg>
