<svg viewBox="0 0 34.8338 34.8333" fill="none" xmlns="http://www.w3.org/2000/svg">
<g id="elements">
<path id="Vector" d="M34.0833 14.0833V12.7791C34.0833 9.54645 34.0833 7.93011 33.107 6.92584C32.1307 5.92157 30.5594 5.92157 27.4167 5.92157H23.9523C22.4233 5.92157 22.4107 5.91859 21.0358 5.23057L15.4831 2.4519C13.1647 1.29173 12.0055 0.711651 10.7706 0.751965C9.53572 0.792279 8.41462 1.4468 6.17241 2.75585L4.12596 3.95061C2.47898 4.91216 1.65548 5.39293 1.20274 6.19274C0.750001 6.99255 0.750001 7.96655 0.750001 9.91455V23.6096C0.750001 26.1691 0.750001 27.4488 1.32044 28.1611C1.70001 28.6351 2.23193 28.9536 2.82 29.0593C3.70377 29.218 4.7858 28.5863 6.94979 27.3229C8.41926 26.465 9.83352 25.574 11.5914 25.8156C13.0645 26.018 14.4333 26.9475 15.75 27.6064" stroke="var(--stroke-0, #213163)" stroke-width="1.5" stroke-linecap="round" stroke-linejoin="round"/>
<path id="Vector 4644" d="M10.75 0.749999L10.75 25.75" stroke="var(--stroke-0, #213163)" stroke-width="1.5" stroke-linejoin="round"/>
<path id="Vector 4645" d="M22.4167 5.75V13.25" stroke="var(--stroke-0, #213163)" stroke-width="1.5" stroke-linecap="round" stroke-linejoin="round"/>
<path id="Vector_2" d="M27.9306 33.5558C27.5692 33.8942 27.0862 34.0833 26.5835 34.0833C26.0808 34.0833 25.5978 33.8942 25.2364 33.5558C21.9272 30.4383 17.4925 26.9558 19.6552 21.8997C20.8245 19.166 23.6315 17.4167 26.5835 17.4167C29.5355 17.4167 32.3425 19.166 33.5118 21.8997C35.6718 26.9494 31.2479 30.4491 27.9306 33.5558Z" stroke="var(--stroke-0, #213163)" stroke-width="1.5"/>
<path id="Vector_3" d="M26.5833 24.9167H26.5983" stroke="var(--stroke-0, #213163)" stroke-width="2" stroke-linecap="round" stroke-linejoin="round"/>
</g>
</svg>
