<svg viewBox="0 0 40 39" fill="none" xmlns="http://www.w3.org/2000/svg">
<g id="Frame">
<path id="Vector" d="M14.265 11.807L15.412 13.446C14.0182 14.4218 12.9718 15.8165 12.4247 17.4276C11.8777 19.0387 11.8586 20.7822 12.3702 22.4049C12.8817 24.0276 13.8973 25.445 15.2694 26.4511C16.6415 27.4572 18.2986 27.9996 20 27.9996C21.7014 27.9996 23.3585 27.4572 24.7306 26.4511C26.1027 25.445 27.1183 24.0276 27.6298 22.4049C28.1414 20.7822 28.1223 19.0387 27.5753 17.4276C27.0282 15.8165 25.9818 14.4218 24.588 13.446L25.735 11.807C27.0529 12.7284 28.1289 13.9545 28.8715 15.3809C29.614 16.8073 30.0012 18.3919 30 20C30 25.523 25.523 30 20 30C14.477 30 10 25.523 10 20C9.99884 18.3919 10.386 16.8073 11.1285 15.3809C11.8711 13.9545 12.9471 12.7284 14.265 11.807V11.807ZM19 20V10H21V20H19Z" fill="var(--fill-0, #213163)"/>
</g>
</svg>
