<svg viewBox="0 0 31.4994 31.5" fill="none" xmlns="http://www.w3.org/2000/svg">
<g id="elements">
<path id="Vector" d="M10.8524 3.79389L1.14821 12.2856C0.316017 13.0138 0.873985 14.3071 2.02033 14.3071C2.72067 14.3071 3.28841 14.8315 3.28841 15.4784V20.8843C3.28841 25.535 3.28841 27.8604 4.85262 29.3052C6.41683 30.75 8.93439 30.75 13.9695 30.75H17.5299C22.565 30.75 25.0825 30.75 26.6468 29.3052C28.211 27.8604 28.211 25.535 28.211 20.8843V15.4784C28.211 14.8315 28.7787 14.3071 29.479 14.3071C30.6254 14.3071 31.1834 13.0138 30.3512 12.2856L20.6469 3.79389C18.3279 1.76463 17.1684 0.75 15.7497 0.75C14.331 0.75 13.1715 1.76463 10.8524 3.79389Z" stroke="var(--stroke-0, #213163)" stroke-width="1.5" stroke-linecap="round" stroke-linejoin="round"/>
<path id="Vector_2" d="M15.7497 22.4167H15.7647" stroke="var(--stroke-0, #213163)" stroke-width="2" stroke-linecap="round" stroke-linejoin="round"/>
</g>
</svg>
