<svg viewBox="0 0 29.8333 34.8334" fill="none" xmlns="http://www.w3.org/2000/svg">
<g id="elements">
<path id="Rectangle 2172" d="M0.75 14.0833C0.75 7.79794 0.75 4.65524 2.82466 2.70262C4.89932 0.75 8.23844 0.75 14.9167 0.75H16.2045C21.6399 0.75 24.3576 0.75 26.2449 2.07973C26.7856 2.46071 27.2657 2.91254 27.6705 3.42148C29.0833 5.19779 29.0833 7.7556 29.0833 12.8712V17.1136C29.0833 22.0523 29.0833 24.5216 28.3018 26.4937C27.0453 29.6643 24.3881 32.1652 21.0194 33.3477C18.924 34.0833 16.3003 34.0833 11.053 34.0833C8.05458 34.0833 6.55536 34.0833 5.35796 33.663C3.43299 32.9873 1.91459 31.5582 1.19661 29.7464C0.75 28.6195 0.75 27.2084 0.75 24.3864V14.0833Z" stroke="var(--stroke-0, #213163)" stroke-width="1.5" stroke-linejoin="round"/>
<path id="Vector" d="M29.0833 17.4167C29.0833 20.4849 26.596 22.9722 23.5278 22.9722C22.4181 22.9722 21.1099 22.7778 20.0311 23.0669C19.0725 23.3237 18.3237 24.0725 18.0669 25.0311C17.7778 26.1099 17.9722 27.4181 17.9722 28.5278C17.9722 31.596 15.4849 34.0833 12.4167 34.0833" stroke="var(--stroke-0, #213163)" stroke-width="1.5" stroke-linecap="round" stroke-linejoin="round"/>
<path id="Vector 4381" d="M8.25 9.08333H19.9167" stroke="var(--stroke-0, #213163)" stroke-width="1.5" stroke-linecap="round" stroke-linejoin="round"/>
<path id="Vector 4382" d="M8.25 15.75H13.25" stroke="var(--stroke-0, #213163)" stroke-width="1.5" stroke-linecap="round" stroke-linejoin="round"/>
</g>
</svg>
