<svg viewBox="0 0 34.8333 31.5" fill="none" xmlns="http://www.w3.org/2000/svg">
<g id="elements">
<path id="Vector 7163" d="M0.75 4.91667L12.2717 11.4577C16.4811 13.8474 18.3522 13.8474 22.5616 11.4577L34.0833 4.91667" stroke="var(--stroke-0, #213163)" stroke-width="1.5" stroke-linejoin="round"/>
<path id="Vector" d="M16.5833 29.0833C16.5833 29.0833 14.1984 29.063 12.5814 29.0224C7.33389 28.8906 4.71014 28.8246 2.82493 26.9323C0.939714 25.0399 0.885235 22.4853 0.776276 17.376C0.741242 15.7332 0.741241 14.1001 0.776274 12.4573C0.885228 7.34808 0.939705 4.79347 2.82492 2.90108C4.71014 1.00869 7.33388 0.942773 12.5814 0.810937C15.8155 0.729684 19.0178 0.729688 22.252 0.810948C27.4995 0.942795 30.1232 1.00872 32.0084 2.9011C33.8936 4.79349 33.9481 7.3481 34.0571 12.4573C34.0697 13.0521 34.0778 14.0824 34.0813 14.9167" stroke="var(--stroke-0, #213163)" stroke-width="1.5" stroke-linecap="round" stroke-linejoin="round"/>
<path id="Vector_2" d="M20.75 24.0833H34.0833M27.4167 30.75L27.4167 17.4167" stroke="var(--stroke-0, #213163)" stroke-width="1.5" stroke-linecap="round" stroke-linejoin="round"/>
</g>
</svg>
