<svg viewBox="0 0 33.9629 34.9109" fill="none" xmlns="http://www.w3.org/2000/svg">
<g id="Group 949">
<path id="Vector" d="M13.8326 27.9279C13.5485 28.1236 13.2429 28.1719 12.8998 28.1558C12.8971 29.5688 12.9105 30.9523 12.8917 32.3599C12.8783 33.1106 12.2377 33.7407 11.4871 33.7541C10.7365 33.7675 9.98325 33.7595 9.22999 33.7568C8.98874 33.7568 8.8279 33.5825 8.8279 33.3251C8.82522 32.6897 8.8279 32.0543 8.82522 31.4188C8.82522 31.0006 8.82522 30.5796 8.82522 30.1613C8.82254 29.7297 8.55179 29.4535 8.11485 29.4481C7.70472 29.4428 7.29458 29.4428 6.88444 29.4481C6.45823 29.4535 6.1848 29.7323 6.1848 30.1587C6.18212 31.1963 6.18212 32.2312 6.18212 33.2688C6.18212 33.6147 6.03737 33.7595 5.68889 33.7595C5.00801 33.7595 4.32713 33.7595 3.64625 33.7595C2.74824 33.7568 2.11025 33.1294 2.10489 32.2285C2.09953 30.8719 2.10221 29.5125 2.10221 28.1558C0.858398 28.2738 0.134629 26.8742 1.0246 25.9706C2.86351 24.1313 4.70242 22.292 6.54401 20.4554C6.65927 20.3348 6.7933 20.2356 6.94074 20.1551C7.36964 19.9406 8.03711 20.0077 8.44457 20.4259C9.47661 21.485 10.5301 22.5226 11.5755 23.5683C12.377 24.3726 13.1732 25.1824 13.9881 25.976C14.5242 26.4988 14.4733 27.5016 13.8326 27.9279Z" stroke="var(--stroke-0, #213163)" stroke-width="1.25937"/>
<path id="Vector_2" d="M29.0613 3.62759C31.295 3.62781 33.1754 5.54803 33.1756 8.00063C33.1756 8.44068 33.0308 9.03395 32.7449 9.74673C32.464 10.4473 32.0705 11.2076 31.6268 11.9655C30.7493 13.4638 29.709 14.8956 29.0603 15.7516C28.4117 14.8956 27.3731 13.4634 26.4959 11.9655C26.0521 11.2076 25.6577 10.4473 25.3768 9.74673C25.0909 9.03395 24.9461 8.44068 24.9461 8.00063C24.9462 5.54789 26.8274 3.62759 29.0613 3.62759Z" stroke="var(--stroke-0, #213163)" stroke-width="1.57422"/>
<path id="Rectangle 2176" d="M15.2608 2.63927H10.1678C5.8207 2.63927 2.29669 6.16328 2.29669 10.5104V15.6034" stroke="var(--stroke-0, #213163)" stroke-width="1.57422" stroke-linecap="round"/>
<path id="Rectangle 2177" d="M18.9649 32.2716L24.058 32.2716C28.405 32.2716 31.929 28.7476 31.929 24.4005L31.929 19.3075" stroke="var(--stroke-0, #213163)" stroke-width="1.57422" stroke-linecap="round"/>
<path id="Vector 7165" d="M13.4088 4.49129L17.1129 2.90384L13.4088 0.787244" stroke="var(--stroke-0, #213163)" stroke-width="1.57422" stroke-linecap="round"/>
<path id="Vector 7166" d="M20.8169 34.1236L17.1129 32.5362L20.8169 30.4196" stroke="var(--stroke-0, #213163)" stroke-width="1.57422" stroke-linecap="round"/>
</g>
</svg>
