<svg viewBox="0 0 24 26" fill="none" xmlns="http://www.w3.org/2000/svg">
<g id="Vector">
<path d="M23.5432 7.03492C23.2948 7.2094 23.0276 7.25242 22.7277 7.23808C22.7253 8.49765 22.737 9.73094 22.7206 10.9857C22.7089 11.655 22.1488 12.2166 21.4926 12.2286C20.8364 12.2405 20.1778 12.2334 19.5192 12.231C19.3083 12.231 19.1677 12.0756 19.1677 11.8462C19.1653 11.2797 19.1677 10.7133 19.1653 10.1468C19.1653 9.77396 19.1653 9.39872 19.1653 9.02586C19.163 8.64106 18.9263 8.39488 18.5443 8.3901C18.1857 8.38532 17.8271 8.38532 17.4686 8.3901C17.0959 8.39488 16.8569 8.64345 16.8569 9.02347C16.8545 9.94844 16.8545 10.871 16.8545 11.796C16.8545 12.1043 16.728 12.2334 16.4233 12.2334C15.828 12.2334 15.2327 12.2334 14.6374 12.2334C13.8523 12.231 13.2945 11.6717 13.2899 10.8686C13.2852 9.65924 13.2875 8.44746 13.2875 7.23808C12.2001 7.34324 11.5673 6.09561 12.3454 5.29015C13.9531 3.65055 15.5608 2.01095 17.1709 0.373738C17.2717 0.266184 17.3889 0.177751 17.5178 0.106048C17.8927 -0.0851591 18.4763 -0.0254069 18.8325 0.347447C19.7348 1.29153 20.6559 2.2165 21.5699 3.14863C22.2707 3.86566 22.9667 4.58747 23.6792 5.29493C24.1479 5.761 24.1034 6.65489 23.5432 7.03492Z" fill="var(--fill-0, white)"/>
<path d="M10.1154 8.6349C10.4822 8.6349 10.7804 8.9357 10.7804 9.30775C10.7803 9.67969 10.4821 9.97986 10.1154 9.97986H3.39685C2.47779 9.98005 1.73297 10.7337 1.73279 11.6616C1.73279 12.5897 2.47768 13.3439 3.39685 13.3441H17.3707C20.8245 13.3441 23.6249 16.1743 23.6249 19.6671C23.6248 23.1599 20.8245 25.9901 17.3707 25.9901H6.54919C6.18246 25.99 5.88489 25.6893 5.88489 25.3173C5.88508 24.9455 6.18258 24.6453 6.54919 24.6452H17.3707C20.0909 24.6452 22.2955 22.4158 22.2955 19.6671C22.2955 16.9184 20.0909 14.6891 17.3707 14.6891H3.39685C1.74405 14.6889 0.403442 13.3338 0.403442 11.6616C0.403623 9.9896 1.74416 8.63509 3.39685 8.6349H10.1154Z" fill="var(--fill-0, white)"/>
<path d="M6.75 19.7964C6.75 21.4978 4.69336 24.5269 3.7916 25.7766C3.57539 26.0745 3.17461 26.0745 2.9584 25.7766C2.05664 24.5269 0 21.4978 0 19.7964C0 17.733 1.51172 16.0588 3.375 16.0588C5.23828 16.0588 6.75 17.733 6.75 19.7964Z" fill="var(--fill-0, white)"/>
</g>
</svg>
