<svg viewBox="0 0 40 40" fill="none" xmlns="http://www.w3.org/2000/svg">
<g id="Menu icons">
<path id="Rectangle 442" d="M18.9995 24.5839C19.5124 23.9428 20.4876 23.9428 21.0005 24.5839L25.0014 29.585C25.6725 30.4239 25.0752 31.6667 24.0009 31.6667H15.9991C14.9248 31.6667 14.3275 30.4239 14.9986 29.585L18.9995 24.5839Z" fill="var(--fill-0, #213163)" stroke="var(--stroke-0, #213163)" stroke-width="1.28125"/>
<path id="Rectangle 441" d="M7.94583 9.48334C6.04538 6.9494 7.85341 3.33333 11.0208 3.33333H28.9792C32.1466 3.33333 33.9546 6.94939 32.0542 9.48333L25.8964 17.6937C24.8714 19.0604 24.8714 20.9396 25.8964 22.3062L32.0542 30.5167C33.9546 33.0506 32.1466 36.6667 28.9792 36.6667H11.0208C7.85341 36.6667 6.04538 33.0506 7.94583 30.5167L14.1036 22.3063C15.1286 20.9396 15.1286 19.0604 14.1036 17.6937L7.94583 9.48334Z" stroke="var(--stroke-0, #213163)" stroke-width="1.28125"/>
</g>
</svg>
